#!OML:ASF E:\emotionWalksFemale\Project 1\Capture day 1\Session 1\Female1.ASF
:FULLY-SPECIFIED
:DEGREES
1112
root 8.03054 15.3112 -34.8884 1.84991 -4.54951 360.544
lowerback 4.18013 3.51959 5.12339
upperback -6.04826 5.07407 -1.19494
thorax -8.17512 2.12813 -4.67227
lowerneck -4.35937 1.101 -4.53126
upperneck 10.9478 1.69231 1.75868
head 4.3417 0.736176 1.48796
rclavicle -2.34317e-014 4.47266e-015
rhumerus -29.7398 35.5535 -50.902
rradius 26.0415
rwrist 49.3534
rhand 165.002 -67.8862
rfingers 7.12502
rthumb -168.833 -38.2033
lclavicle -2.34317e-014 4.47266e-015
lhumerus 59.9902 44.6628 75.9382
lradius 25.831
lwrist -41.7629
lhand -12.9811 -19.9009
lfingers 7.12502
lthumb 13.1114 9.66691
rfemur 1.16366 6.53401 25.9356
rtibia 28.4402
rfoot -26.1402 -35.2127
rtoes 2.09199
lfemur -19.4862 -1.6985 -20.4776
ltibia 42.1857
lfoot -17.9726 2.45194
ltoes 9.14569
1113
root 7.96256 15.2865 -34.9533 1.6208 -2.90497 360.669
lowerback 4.5734 3.57159 4.82814
upperback -5.96987 5.13336 -1.2829
thorax -8.32834 2.16774 -4.63556
lowerneck -4.17828 0.345159 -5.23512
upperneck 11.2272 0.676139 2.20022
head 4.4505 0.222186 1.71919
rclavicle 2.58203e-014 1.65488e-014
rhumerus -29.3743 34.2715 -51.9083
rradius 26.1679
rwrist 51.4238
rhand 166.486 -67.6684
rfingers 7.12502
rthumb -167.402 -38.0683
lclavicle 2.58203e-014 1.65488e-014
lhumerus 60.515 42.7047 76.069
lradius 26.3757
lwrist -40.388
lhand -14.8964 -20.1759
lfingers 7.12502
lthumb 11.2647 9.50163
rfemur 1.61327 6.39489 26.4262
rtibia 28.0028
rfoot -26.7614 -36.2998
rtoes 2.80592
lfemur -19.9618 -1.8819 -20.4145
ltibia 42.602
lfoot -18.0328 1.61607
ltoes 8.75783
1114
root 7.89283 15.258 -35.017 1.43217 -1.16908 360.696
lowerback 5.26736 3.59781 4.77206
upperback -6.20164 5.1934 -1.48207
thorax -8.97193 2.16146 -4.89493
lowerneck -3.49921 -0.373367 -5.81373
upperneck 11.9101 -0.373215 2.91184
head 4.1493 -0.280822 1.82837
rclavicle -9.33046e-015 -1.4561e-014
rhumerus -29.5421 32.9359 -53.4421
rradius 26.326
rwrist 52.6998
rhand 167.909 -67.6029
rfingers 7.12502
rthumb -166.031 -38.0922
lclavicle -9.33046e-015 -1.4561e-014
lhumerus 60.3242 40.4517 75.6158
lradius 27.0864
lwrist -39.1779
lhand -16.5399 -20.8457
lfingers 7.12502
lthumb 9.67928 8.9119
rfemur 1.95916 6.13105 27.0226
rtibia 27.6486
rfoot -28.2419 -37.1327
rtoes 5.75019
lfemur -20.5453 -2.17562 -20.2517
ltibia 43.0522
lfoot -18.1105 0.956519
ltoes 7.54662
1115
root 7.82361 15.2306 -35.0735 1.31269 0.544582 360.766
lowerback 5.054 3.57154 4.31036
upperback -5.89268 5.10945 -1.308
thorax -8.567 2.17987 -4.40871
lowerneck -3.53935 -1.00197 -6.8122
upperneck 12.0917 -1.18622 3.29156
head 4.25707 -0.707168 2.07154
rclavicle 8.51761e-014 -5.54733e-015
rhumerus -28.6134 32.0003 -54.0133
rradius 26.5317
rwrist 53.4118
rhand 169.203 -67.9533
rfingers 7.12502
rthumb -164.784 -38.5329
lclavicle 8.51761e-014 -5.54733e-015
lhumerus 61.0115 38.9721 76.561
lradius 28.0653
lwrist -38.4454
lhand -18.2127 -21.7179
lfingers 7.12502
lthumb 8.06509 8.10817
rfemur 2.17303 5.76674 27.5404
rtibia 27.3904
rfoot -30.1312 -37.7091
rtoes 9.70613
lfemur -21.2304 -2.45609 -20.1667
ltibia 43.5824
lfoot -18.646 0.727768
ltoes 2.39384
1116
root 7.75724 15.2013 -35.127 1.26474 2.18449 360.859
lowerback 5.11377 3.59279 4.18186
upperback -5.86415 5.11907 -1.44327
thorax -8.56784 2.18889 -4.48518
lowerneck -3.34171 -1.64675 -7.30766
upperneck 12.4104 -2.07439 3.62233
head 4.37612 -1.15431 2.21322
rclavicle -2.67987e-014 -5.2181e-015
rhumerus -28.385 30.5266 -55.2543
rradius 26.7941
rwrist 53.5646
rhand 170.154 -67.6197
rfingers 7.12502
rthumb -163.868 -38.2711
lclavicle -2.67987e-014 -5.2181e-015
lhumerus 60.3044 36.8045 75.5612
lradius 29.4006
lwrist -36.4819
lhand -20.0694 -22.4901
lfingers 7.12502
lthumb 6.27282 7.39699
rfemur 2.22281 5.17752 27.9664
rtibia 27.2409
rfoot -31.7255 -38.2064
rtoes 12.4325
lfemur -22.0012 -2.69783 -20.1473
ltibia 44.1815
lfoot -18.3446 -0.557391
ltoes 4.25314
1117
root 7.69788 15.1673 -35.1771 1.19321 3.80884 360.857
lowerback 5.14017 3.6413 4.20094
upperback -5.85426 5.17993 -1.5541
thorax -8.55474 2.21482 -4.62137
lowerneck -2.88412 -2.33158 -7.71889
upperneck 12.6616 -3.03091 3.82819
head 4.44012 -1.63963 2.29983
rclavicle 1.49834e-014 -7.45443e-015
rhumerus -28.3449 29.0967 -56.5656
rradius 27.1382
rwrist 53.3013
rhand 170.948 -67.4161
rfingers 7.12502
rthumb -163.104 -38.1311
lclavicle 1.49834e-014 -7.45443e-015
lhumerus 59.285 34.4998 74.312
lradius 30.944
lwrist -34.2119
lhand -21.7565 -23.4175
lfingers 7.12502
lthumb 4.64393 6.51159
rfemur 2.19848 4.3804 28.4275
rtibia 27.1935
rfoot -33.1073 -38.7376
rtoes 13.7887
lfemur -22.7439 -2.914 -20.1049
ltibia 44.8127
lfoot -18.3039 -1.36253
ltoes 4.33459
1118
root 7.64461 15.1289 -35.2247 1.0693 5.42849 360.853
lowerback 4.97273 3.65722 4.21438
upperback -5.67451 5.19167 -1.55322
thorax -8.25764 2.23517 -4.60404
lowerneck -2.52784 -2.99075 -8.3102
upperneck 12.8118 -3.92786 3.97507
head 4.49628 -2.10541 2.39903
rclavicle -1.00262e-014 -1.14301e-014
rhumerus -28.0505 28.1302 -57.7192
rradius 27.6508
rwrist 52.4062
rhand 172.248 -67.3342
rfingers 7.12502
rthumb -161.853 -38.1607
lclavicle -1.00262e-014 -1.14301e-014
lhumerus 58.3856 32.4318 73.3072
lradius 32.675
lwrist -31.8644
lhand -23.3975 -24.4661
lfingers 7.12502
lthumb 3.05921 5.49168
rfemur 2.18025 3.51546 28.8279
rtibia 27.1695
rfoot -34.5804 -39.1703
rtoes 15.2237
lfemur -23.4086 -3.13933 -20.1251
ltibia 45.4346
lfoot -18.4457 -1.88323
ltoes 4.85731
1119
root 7.59198 15.0978 -35.2671 1.07086 6.9135 360.845
lowerback 4.75743 3.6706 4.2283
upperback -5.6071 5.20294 -1.52201
thorax -8.0585 2.25069 -4.55744
lowerneck -2.23846 -3.57907 -8.87379
upperneck 13.0755 -4.71203 3.97055
head 4.59454 -2.52333 2.45041
rclavicle -8.49804e-015 1.39149e-015
rhumerus -27.859 27.6746 -58.9938
rradius 27.9893
rwrist 51.8712
rhand 173.8 -67.9869
rfingers 7.12502
rthumb -160.36 -38.959
lclavicle -8.49804e-015 1.39149e-015
lhumerus 56.8619 30.3818 71.618
lradius 34.7806
lwrist -29.0505
lhand -25.1825 -25.442
lfingers 7.12502
lthumb 1.33532 4.53353
rfemur 2.02731 2.78328 29.1969
rtibia 27.1405
rfoot -35.9995 -39.4237
rtoes 17.283
lfemur -24.1655 -3.18167 -20.1578
ltibia 46.0149
lfoot -18.4383 -2.38065
ltoes 5.66513
1120
root 7.53955 15.0769 -35.308 1.069 8.22665 360.702
lowerback 4.61045 3.69886 4.35431
upperback -5.61423 5.25195 -1.44409
thorax -7.97216 2.27377 -4.53761
lowerneck -1.942 -4.13489 -9.33253
upperneck 13.4474 -5.44726 3.83381
head 4.72034 -2.92109 2.44455
rclavicle -1.98163e-014 6.80837e-015
rhumerus -27.7967 27.6783 -60.4724
rradius 28.1287
rwrist 51.2736
rhand 173.892 -69.1023
rfingers 7.12502
rthumb -160.271 -40.0834
lclavicle -1.98163e-014 6.80837e-015
lhumerus 55.2755 28.4793 70.1827
lradius 37.1085
lwrist -26.8808
lhand -26.6257 -26.9287
lfingers 7.12502
lthumb -0.0586053 3.05107
rfemur 1.85569 2.26357 29.7261
rtibia 27.1019
rfoot -37.138 -39.8049
rtoes 18.7203
lfemur -24.8827 -2.92887 -20.0823
ltibia 46.5473
lfoot -18.4478 -2.74652
ltoes 4.14284
1121
root 7.48854 15.056 -35.3514 0.914966 9.43174 360.493
lowerback 4.67043 3.74052 4.57208
upperback -5.6008 5.33497 -1.37443
thorax -7.97282 2.30418 -4.59714
lowerneck -1.61184 -4.68381 -9.6895
upperneck 13.7946 -6.1862 3.70906
head 4.83286 -3.31561 2.42505
rclavicle -1.82882e-014 -1.10822e-014
rhumerus -27.7814 27.7248 -62.0772
rradius 28.468
rwrist 50.2099
rhand 173.311 -69.0056
rfingers 7.12502
rthumb -160.83 -39.9304
lclavicle -1.82882e-014 -1.10822e-014
lhumerus 53.9108 26.7013 69.2433
lradius 39.5006
lwrist -25.5353
lhand -27.715 -28.8255
lfingers 7.12502
lthumb -1.11061 1.15136
rfemur 1.83563 1.56076 30.2521
rtibia 27.0158
rfoot -37.7597 -40.1176
rtoes 19.3037
lfemur -25.3716 -2.65572 -19.9755
ltibia 47.0336
lfoot -18.7179 -2.89967
ltoes 2.02006
1122
root 7.43999 15.0397 -35.3909 0.792359 10.5091 360.299
lowerback 4.67676 3.76934 4.78281
upperback -5.56506 5.39863 -1.27848
thorax -7.92271 2.32886 -4.61712
lowerneck -1.44178 -5.13225 -10.1875
upperneck 14.167 -6.78451 3.72257
head 4.98192 -3.63984 2.47367
rclavicle -3.2054e-015 9.44227e-016
rhumerus -27.5323 27.5922 -63.3967
rradius 28.6277
rwrist 51.6872
rhand 174.365 -68.7736
rfingers 7.12502
rthumb -159.817 -39.8021
lclavicle -3.2054e-015 9.44227e-016
lhumerus 52.5055 25.1283 68.3075
lradius 42.0387
lwrist -24.3959
lhand -28.8534 -30.6413
lfingers 7.12502
lthumb -2.21009 -0.672978
rfemur 1.77403 0.677237 30.638
rtibia 26.9323
rfoot -37.3936 -40.3088
rtoes 18.817
lfemur -25.8098 -2.47719 -19.9006
ltibia 47.4632
lfoot -19.0332 -2.82334
ltoes 1.75197
1123
root 7.39625 15.0304 -35.426 0.752215 11.4507 360.077
lowerback 4.50363 3.75823 5.01393
upperback -5.46932 5.40414 -1.09476
thorax -7.71559 2.33449 -4.53134
lowerneck -1.63475 -5.47279 -10.9604
upperneck 14.7235 -7.205 3.89721
head 5.25642 -3.88183 2.61377
rclavicle -5.04121e-014 -1.34428e-014
rhumerus -26.9239 27.6314 -64.5145
rradius 28.7988
rwrist 53.2227
rhand 175.468 -68.165
rfingers 7.12502
rthumb -158.757 -39.3091
lclavicle -5.04121e-014 -1.34428e-014
lhumerus 50.9596 23.8865 67.2922
lradius 44.7589
lwrist -23.5526
lhand -31.0951 -32.3529
lfingers 7.12502
lthumb -4.37497 -2.41807
rfemur 1.56786 -0.0293884 31.0196
rtibia 26.9411
rfoot -36.8952 -40.5599
rtoes 17.3762
lfemur -26.2349 -2.34432 -19.8064
ltibia 47.7746
lfoot -19.1394 -2.63612
ltoes -0.0351888
1124
root 7.3549 15.0224 -35.4611 0.679574 12.3069 359.871
lowerback 4.38557 3.93352 5.40647
upperback -5.50156 5.65996 -1.19939
thorax -7.6097 2.43903 -4.87241
lowerneck -1.14488 -5.93277 -11.1184
upperneck 15.0049 -7.90797 4.11799
head 5.33131 -4.23097 2.6728
rclavicle 7.7116e-014 -6.55989e-015
rhumerus -27.1723 27.201 -66.2042
rradius 28.888
rwrist 53.6706
rhand 175.127 -70.7631
rfingers 7.12502
rthumb -159.085 -41.8707
lclavicle 7.7116e-014 -6.55989e-015
lhumerus 49.4335 21.9122 66.3803
lradius 47.639
lwrist -23.2275
lhand -33.321 -33.9751
lfingers 7.12502
lthumb -6.52409 -4.09556
rfemur 1.33178 -0.851712 31.3236
rtibia 27.0401
rfoot -36.8217 -40.3461
rtoes 17.4878
lfemur -26.5167 -2.2098 -19.7318
ltibia 47.9172
lfoot -19.4645 -2.48676
ltoes -0.971806
1125
root 7.3135 15.0141 -35.4972 0.461557 13.0553 359.717
lowerback 4.40956 4.07689 5.62732
upperback -5.46467 5.87052 -1.20752
thorax -7.53845 2.5338 -5.02059
lowerneck -0.470651 -6.29072 -11.4319
upperneck 14.9958 -8.49783 4.45355
head 5.29017 -4.52534 2.80889
rclavicle -3.27746e-014 -2.5842e-015
rhumerus -27.4201 27.3221 -67.8832
rradius 28.9105
rwrist 52.8628
rhand 174.875 -70.3953
rfingers 7.12502
rthumb -159.327 -41.4763
lclavicle -3.27746e-014 -2.5842e-015
lhumerus 47.815 20.1048 65.8781
lradius 50.7527
lwrist -23.2105
lhand -33.5158 -35.6926
lfingers 7.12502
lthumb -6.71215 -5.81902
rfemur 1.22239 -1.73 31.5296
rtibia 27.2081
rfoot -36.8451 -39.9113
rtoes 18.4071
lfemur -26.5643 -2.04356 -19.7204
ltibia 47.889
lfoot -19.7941 -1.97398
ltoes -2.5275
1126
root 7.27324 15.0081 -35.5336 0.140867 13.6695 359.597
lowerback 4.53299 4.23167 5.71219
upperback -5.43136 6.09689 -1.13472
thorax -7.54661 2.6427 -5.01918
lowerneck 0.170782 -6.58833 -11.873
upperneck 15.1748 -9.00497 4.80827
head 5.3177 -4.78833 2.97491
rclavicle -4.24405e-014 -8.54774e-015
rhumerus -27.4178 26.8506 -69.1102
rradius 28.8308
rwrist 53.0659
rhand 174.692 -69.8444
rfingers 7.12502
rthumb -159.503 -40.9063
lclavicle -4.24405e-014 -8.54774e-015
lhumerus 45.9219 18.327 65.375
lradius 54.019
lwrist -23.3766
lhand -34.037 -37.0769
lfingers 7.12502
lthumb -7.21527 -7.21989
rfemur 1.20913 -2.23765 31.7573
rtibia 27.4226
rfoot -36.9906 -39.8262
rtoes 18.6508
lfemur -26.3889 -1.92058 -19.7235
ltibia 47.7098
lfoot -19.9501 -1.67411
ltoes -3.48442
